<svg
  xmlns="http://www.w3.org/2000/svg"
  width="24"
  height="24"
  viewBox="0 0 24 24"
  fill="none"
  stroke="currentColor"
  stroke-width="2"
  stroke-linecap="round"
  stroke-linejoin="round"
  class="icon icon-tabler icons-tabler-outline icon-tabler-brand-google-analytics"
>
  <path stroke="none" d="M0 0h24v24H0z" fill="none"/>
  <path d="M10 10.105a1.105 1.105 0 0 1 1.105 -1.105h1.79a1.105 1.105 0 0 1 1.105 1.105v9.79a1.105 1.105 0 0 1 -1.105 1.105h-1.79a1.105 1.105 0 0 1 -1.105 -1.105l0 -9.79" />
  <path d="M17 4.105a1.105 1.105 0 0 1 1.105 -1.105h1.79a1.105 1.105 0 0 1 1.105 1.105v15.79a1.105 1.105 0 0 1 -1.105 1.105h-1.79a1.105 1.105 0 0 1 -1.105 -1.105l0 -15.79" />
  <path d="M3 19a2 2 0 1 0 4 0a2 2 0 1 0 -4 0" />
</svg>