<svg
  xmlns="http://www.w3.org/2000/svg"
  width="24"
  height="24"
  viewBox="0 0 24 24"
  fill="none"
  stroke="currentColor"
  stroke-width="2"
  stroke-linecap="round"
  stroke-linejoin="round"
  class="icon icon-tabler icons-tabler-outline icon-tabler-device-nintendo"
>
  <path stroke="none" d="M0 0h24v24H0z" fill="none"/>
  <path d="M10 20v-16h-3a4 4 0 0 0 -4 4v8a4 4 0 0 0 4 4h3" />
  <path d="M14 20v-16h3a4 4 0 0 1 4 4v8a4 4 0 0 1 -4 4h-3" />
  <path d="M16.5 15.5a1 1 0 1 0 2 0a1 1 0 1 0 -2 0" fill="currentColor" />
  <path d="M5.5 8.5a1 1 0 1 0 2 0a1 1 0 1 0 -2 0" fill="currentColor" />
</svg>