<svg
  xmlns="http://www.w3.org/2000/svg"
  width="24"
  height="24"
  viewBox="0 0 24 24"
  fill="none"
  stroke="currentColor"
  stroke-width="2"
  stroke-linecap="round"
  stroke-linejoin="round"
  class="icon icon-tabler icons-tabler-outline icon-tabler-git-merge-queue"
>
  <path stroke="none" d="M0 0h24v24H0z" fill="none" />
  <path d="M4 18a2 2 0 1 0 4 0a2 2 0 0 0 -4 0" />
  <path d="M16 12a2 2 0 1 0 4 0a2 2 0 0 0 -4 0" />
  <path d="M6 11v5" />
  <path d="M4.5 4.5a1 1 0 1 0 2 0a1 1 0 1 0 -2 0" />
  <path d="M9.5 9.5a1 1 0 1 0 2 0a1 1 0 1 0 -2 0" />
</svg>